<svg width="296.4" height="77.301" viewBox="0 0 296.4 77.301" xmlns="http://www.w3.org/2000/svg"><g id="svgGroup" stroke-linecap="round" fill-rule="evenodd" font-size="9pt" stroke="#000" stroke-width="0.25mm" fill="#000" style="stroke:#000;stroke-width:0.25mm;fill:#000"><path d="M 0.5 76.5 L 0 70.6 L 12.1 68.3 L 6.7 72.8 Q 6.853 71.881 7.094 70.347 A 664.763 664.763 0 0 0 7.25 69.35 Q 7.6 67.1 7.9 64.75 Q 8.147 62.813 8.191 61.589 A 13.834 13.834 0 0 0 8.2 61.1 L 8.2 20.3 Q 8.2 19.3 7.95 17.25 Q 7.7 15.2 7.4 12.85 A 68.795 68.795 0 0 0 7.008 10.183 A 54.904 54.904 0 0 0 6.7 8.5 L 12.1 13.3 L 0.1 11.3 L 0.6 5 Q 2.147 5.086 4.063 5.172 A 465.827 465.827 0 0 0 4.7 5.2 Q 7 5.3 9.1 5.4 Q 10.708 5.477 11.788 5.495 A 37.025 37.025 0 0 0 12.4 5.5 L 35.9 5.5 Q 36.8 5.5 38.8 5.45 Q 40.8 5.4 43.1 5.25 Q 45.4 5.1 47.3 5 L 49.2 6.8 L 49.9 20.8 L 43.5 21.3 L 42.6 16.2 A 3.081 3.081 0 0 0 42.493 15.698 Q 42.219 14.749 41.3 12.95 A 57.473 57.473 0 0 0 40.269 11.018 Q 39.781 10.147 39.311 9.391 A 32.412 32.412 0 0 0 39 8.9 L 43.7 12.9 A 75.063 75.063 0 0 0 42.769 12.797 Q 41.725 12.687 40.335 12.564 A 266.652 266.652 0 0 0 39 12.45 Q 36 12.2 33.1 12.2 L 16 12.2 L 21.1 9.6 Q 20.9 11.9 20.65 14.6 Q 20.4 17.3 20.25 19.65 Q 20.126 21.587 20.105 22.811 A 27.655 27.655 0 0 0 20.1 23.3 L 20.1 58.1 Q 20.1 59.708 20.217 61.785 A 105.83 105.83 0 0 0 20.3 63.1 Q 20.5 66 20.8 68.6 Q 21.03 70.591 21.201 71.819 A 48.51 48.51 0 0 0 21.3 72.5 L 17.2 68.9 L 34.2 68.9 A 37.02 37.02 0 0 0 38.831 68.619 A 32.748 32.748 0 0 0 40.3 68.4 Q 43.2 67.9 44.4 67.6 L 39.9 71.8 Q 41.6 69.8 42.9 67.55 Q 43.88 65.854 44.292 64.811 A 5.955 5.955 0 0 0 44.5 64.2 L 45.9 57.9 L 52 58.4 L 50.5 74.6 L 48.6 76.4 Q 46.7 76.3 44.55 76.2 Q 42.4 76.1 40.45 76.05 Q 38.547 76.001 37.263 76 A 68.857 68.857 0 0 0 37.2 76 L 14.6 76 Q 13.605 76 11.935 76.029 A 381.69 381.69 0 0 0 10.85 76.05 Q 8.4 76.1 5.65 76.2 A 119.189 119.189 0 0 0 2.349 76.364 A 97.476 97.476 0 0 0 0.5 76.5 Z M 98.2 27.1 L 98.1 36.6 Q 95.1 34.8 92.5 34.1 A 21.07 21.07 0 0 0 89.746 33.544 A 16.618 16.618 0 0 0 87.6 33.4 A 12.191 12.191 0 0 0 83.999 33.902 A 9.094 9.094 0 0 0 78.95 37.75 A 14.423 14.423 0 0 0 77.284 41.405 Q 76.198 44.911 76.108 49.971 A 52.171 52.171 0 0 0 76.1 50.9 A 42.468 42.468 0 0 0 76.325 55.425 Q 76.837 60.186 78.514 63.165 A 12.153 12.153 0 0 0 78.65 63.4 A 9.501 9.501 0 0 0 80.77 65.933 Q 82.923 67.7 86 67.7 A 10.206 10.206 0 0 0 89.36 67.172 A 8.434 8.434 0 0 0 93.45 64.1 Q 95.412 61.435 96.086 57.072 A 30.365 30.365 0 0 0 96.4 53.8 L 96.4 16.1 Q 96.4 14.835 96.155 12.796 A 59.59 59.59 0 0 0 96.1 12.35 A 87.578 87.578 0 0 0 95.45 8.076 A 80.265 80.265 0 0 0 95.4 7.8 A 147.696 147.696 0 0 0 95.223 6.846 Q 95.001 5.664 94.857 5.041 A 12.916 12.916 0 0 0 94.8 4.8 L 100.4 9 L 87.3 6.2 L 88.1 0 L 99.2 0.4 L 106.9 0.4 L 108.8 2.3 Q 108.7 4.8 108.5 8.05 Q 108.3 11.3 108.15 14.3 Q 108 17.3 108 19.1 L 108 57.8 Q 108 62.5 108.55 66.35 Q 109.1 70.2 109.5 72.5 L 103.7 68.4 L 115.3 69.6 L 114.7 76 L 98.4 76 L 96.8 63.1 L 99.2 64.7 A 20.389 20.389 0 0 1 97.234 68.609 A 18.157 18.157 0 0 1 96.35 69.85 Q 94.6 72.1 92.4 73.7 Q 90.2 75.3 87.7 76.15 A 16.276 16.276 0 0 1 82.662 76.998 A 18.311 18.311 0 0 1 82.4 77 Q 73.3 77 68.15 70.3 A 22.653 22.653 0 0 1 64.497 62.997 Q 63 58.069 63 51.6 A 40.047 40.047 0 0 1 63.668 44.055 Q 65.034 36.936 69.2 32.3 A 20.325 20.325 0 0 1 81.047 25.859 A 29.846 29.846 0 0 1 86.4 25.4 Q 88.3 25.4 90.1 25.55 Q 91.9 25.7 93.85 26.05 A 35.277 35.277 0 0 1 95.777 26.455 Q 96.782 26.694 97.883 27.009 A 58.265 58.265 0 0 1 98.2 27.1 Z M 232.4 49.6 L 230.5 53.2 L 200.8 53.2 L 200.9 46.9 L 224.5 45.4 L 218.7 50.9 Q 219 49.2 219.2 47.5 Q 219.4 45.8 219.4 44.1 A 26.254 26.254 0 0 0 219.21 40.834 Q 218.994 39.115 218.532 37.697 A 11.312 11.312 0 0 0 217.45 35.3 A 6.325 6.325 0 0 0 212.876 32.215 A 9.109 9.109 0 0 0 211.4 32.1 A 8.567 8.567 0 0 0 209.328 32.338 A 6.244 6.244 0 0 0 206.8 33.6 A 8.436 8.436 0 0 0 204.887 35.916 A 11.454 11.454 0 0 0 204.05 37.75 A 24.567 24.567 0 0 0 203.155 40.937 A 31.6 31.6 0 0 0 202.7 43.7 A 55.378 55.378 0 0 0 202.339 48.427 A 65.069 65.069 0 0 0 202.3 50.7 A 42.147 42.147 0 0 0 202.465 54.523 Q 202.652 56.57 203.05 58.35 Q 203.8 61.7 205.4 64.1 A 11.032 11.032 0 0 0 208.111 66.954 A 10.345 10.345 0 0 0 209.4 67.75 Q 211.575 68.883 214.653 68.989 A 18.755 18.755 0 0 0 215.3 69 A 24.821 24.821 0 0 0 220.673 68.436 A 21.643 21.643 0 0 0 223.1 67.75 A 56.596 56.596 0 0 0 225.172 66.988 Q 227.067 66.246 228.315 65.561 A 14.407 14.407 0 0 0 228.6 65.4 L 231.7 70.7 A 15.414 15.414 0 0 1 230.777 71.471 Q 229.925 72.131 228.8 72.85 A 25.081 25.081 0 0 1 226.634 74.08 A 32.809 32.809 0 0 1 224.65 75 Q 222.3 76 219.35 76.65 A 27.549 27.549 0 0 1 215.499 77.205 A 34.467 34.467 0 0 1 212.9 77.3 A 29.889 29.889 0 0 1 206.749 76.697 A 22.026 22.026 0 0 1 200.05 74.15 Q 194.7 71 191.85 65.2 A 26.965 26.965 0 0 1 189.546 58.011 A 37.023 37.023 0 0 1 189 51.5 Q 189 43.3 191.8 37.5 A 21.377 21.377 0 0 1 196.646 30.903 A 20.249 20.249 0 0 1 199.8 28.55 A 21.46 21.46 0 0 1 207.435 25.781 A 28.681 28.681 0 0 1 212.2 25.4 A 28.515 28.515 0 0 1 217.166 25.808 Q 221.006 26.487 223.85 28.3 A 16.653 16.653 0 0 1 230.051 35.488 A 20.807 20.807 0 0 1 230.55 36.65 A 26.059 26.059 0 0 1 232.022 42.177 Q 232.437 44.812 232.437 47.794 A 45.192 45.192 0 0 1 232.4 49.6 Z M 239.3 76.5 L 238.8 70.3 L 251.1 68 L 245.2 73.1 Q 245.43 72.181 245.689 70.559 A 79.506 79.506 0 0 0 245.85 69.5 Q 246.2 67.1 246.5 64.6 Q 246.745 62.558 246.79 61.316 A 14.358 14.358 0 0 0 246.8 60.8 L 246.8 16.2 Q 246.8 14.768 246.527 12.472 A 65.049 65.049 0 0 0 246.5 12.25 Q 246.2 9.8 245.8 7.15 A 933.599 933.599 0 0 0 245.514 5.268 Q 245.288 3.787 245.1 2.6 L 250.9 9.1 L 238.3 6.2 L 239 0 L 249.7 0.4 L 257.3 0.4 L 259.3 2.3 A 108.389 108.389 0 0 1 259.241 3.281 Q 259.138 4.875 258.95 7.2 Q 258.7 10.3 258.6 13.5 Q 258.514 16.25 258.502 18.483 A 132.514 132.514 0 0 0 258.5 19.2 L 258.5 57.8 Q 258.5 62.4 258.95 66.55 Q 259.321 69.971 259.658 72.066 A 41.505 41.505 0 0 0 259.8 72.9 L 254 68.5 L 266.3 69.6 L 265.7 76 L 251 76 A 17.274 17.274 0 0 0 250.629 76.005 Q 250.034 76.018 248.955 76.067 A 204.718 204.718 0 0 0 248.25 76.1 Q 246.2 76.2 243.75 76.3 Q 241.3 76.4 239.3 76.5 Z M 272.1 76.2 L 271.9 70.5 L 274 69.6 L 270.6 64.8 L 259.6 49.5 L 277 29.2 L 278.9 33.9 L 268.7 33.3 L 269.2 26.6 L 273.9 26.6 L 278.65 26.6 L 282.2 26.6 L 294.3 26.6 L 294.3 32.7 L 282.9 33.8 L 290.8 31.7 Q 289.2 32.6 286.85 33.95 Q 284.5 35.3 282.35 36.75 A 25.165 25.165 0 0 0 281.119 37.632 Q 279.888 38.575 279.2 39.4 L 268.6 52.1 L 268.9 43.8 L 281.9 61.1 Q 282.4 61.7 283.7 62.95 A 314.112 314.112 0 0 0 284.914 64.111 Q 285.744 64.9 286.7 65.8 Q 288.4 67.4 290.1 68.9 A 88.169 88.169 0 0 1 291.291 69.969 Q 291.752 70.391 292.154 70.773 A 42.012 42.012 0 0 1 292.9 71.5 L 285.1 68.5 L 296.4 69.6 L 295.8 76 L 283.8 76 Q 282.356 76 280.534 76.024 A 406.969 406.969 0 0 0 278.8 76.05 Q 276.308 76.093 273.151 76.173 A 1044.443 1044.443 0 0 0 272.1 76.2 Z M 137.4 76.5 L 136.9 70.6 L 150.5 68.3 L 145.1 73.4 Q 145.386 72.064 145.673 69.817 A 91.698 91.698 0 0 0 145.7 69.6 L 146.3 64.8 Q 146.547 62.822 146.591 61.591 A 13.964 13.964 0 0 0 146.6 61.1 L 146.6 20.3 A 18.085 18.085 0 0 0 146.576 19.404 Q 146.525 18.4 146.372 17.045 A 60.67 60.67 0 0 0 146.35 16.85 Q 146.1 14.7 145.75 12.5 Q 145.4 10.3 145.1 8.9 L 159.9 8.8 A 286.524 286.524 0 0 0 159.794 9.606 Q 159.649 10.718 159.462 12.204 A 888.698 888.698 0 0 0 159.4 12.7 Q 159.1 15.1 158.85 17.85 Q 158.6 20.6 158.6 23.3 L 158.6 58.1 A 65.344 65.344 0 0 0 158.718 61.954 A 76.891 76.891 0 0 0 158.85 63.8 Q 159.1 66.8 159.4 69.4 A 299.964 299.964 0 0 0 159.544 70.625 Q 159.686 71.811 159.801 72.678 A 75.063 75.063 0 0 0 159.9 73.4 L 154.6 68.7 L 168.7 69.8 L 168.1 76 L 153 76 A 40.206 40.206 0 0 0 152.35 76.006 Q 151.215 76.025 149.15 76.1 Q 146.4 76.2 143.25 76.3 Q 140.1 76.4 137.4 76.5 Z M 129.4 24.4 L 123 23.9 L 123.7 6.8 L 125.7 5 Q 127.6 5.1 129.9 5.2 Q 132.2 5.3 134.2 5.4 Q 136.125 5.496 137.031 5.5 A 17.323 17.323 0 0 0 137.1 5.5 L 168 5.5 Q 168.9 5.5 171 5.4 Q 173.1 5.3 175.5 5.2 Q 177.9 5.1 179.5 5 L 181.4 6.8 L 182.1 23.9 L 175.8 24.4 A 57.459 57.459 0 0 0 175.711 23.505 Q 175.668 23.102 175.615 22.651 A 120.01 120.01 0 0 0 175.5 21.7 A 77.26 77.26 0 0 0 175.081 18.788 A 70.748 70.748 0 0 0 175.05 18.6 Q 174.8 17.1 174.6 16.4 L 171.2 8.2 L 176.7 12.9 Q 175.2 12.7 171.9 12.45 Q 168.6 12.2 165.3 12.2 L 140.1 12.2 A 67.053 67.053 0 0 0 137.358 12.259 A 82.064 82.064 0 0 0 135.6 12.35 A 319.092 319.092 0 0 0 133.46 12.491 Q 132.453 12.56 131.555 12.63 A 189.44 189.44 0 0 0 131.3 12.65 Q 129.4 12.8 128.6 12.9 L 133.7 8.2 L 130.7 16.4 Q 130.4 17.5 130 20.15 Q 129.6 22.8 129.4 24.4 Z M 42 49.6 L 36.4 50.2 L 35 40.1 L 39.5 44 A 94.77 94.77 0 0 1 38.756 43.944 Q 37.575 43.85 36 43.7 L 31.8 43.3 A 55.476 55.476 0 0 0 30.381 43.182 Q 29.789 43.141 29.269 43.121 A 24.68 24.68 0 0 0 28.3 43.1 L 16.2 43.1 L 16.2 36.4 L 30.3 36.4 A 20.069 20.069 0 0 0 31.87 36.334 Q 32.636 36.274 33.491 36.158 A 38.587 38.587 0 0 0 34.55 36 A 118.861 118.861 0 0 0 35.703 35.806 Q 37.325 35.525 38.3 35.3 L 35 39.4 L 36.4 29 L 41.7 29.5 L 41.7 37.9 Q 41.7 43.7 42 49.6 Z" vector-effect="non-scaling-stroke"/></g></svg>